<svg xmlns="http://www.w3.org/2000/svg" width="1150" height="1113"><defs><style>@import url('https://fonts.googleapis.com/css2?family=Roboto+Mono&amp;display=swap')</style><style>text,text&gt;tspan{font-family:'Roboto Mono';font-size:16px} rect{stroke:black} line,path{fill:none;stroke:black}</style><marker id="arrowMarker" orient="auto" refX="6" refY="5" markerHeight="10" markerWidth="5"><path style="fill:black;stroke:black" d="M 0 0 L 5 5 L 0 10 Z"></path></marker><marker id="inheritMarker" orient="auto" refX="16" refY="7.5" markerHeight="15" markerWidth="15"><path style="fill:white;stroke:black" d="M 0 0 L 15 7.5 L 0 15 Z"></path></marker><marker id="aggregationMarker" orient="auto" refX="21" refY="7.5" markerHeight="15" markerWidth="20"><path style="fill:white;stroke:black" d="M 0 7.5 L 10 0 L 20 7.5 L 10 15 Z"></path></marker><marker id="compositionMarker" orient="auto" refX="21" refY="7.5" markerHeight="15" markerWidth="20"><path style="fill:black;stroke:black" d="M 0 7.5 L 10 0 L 20 7.5 L 10 15 Z"></path></marker></defs><g transform="translate(438,5)"><rect height="202" width="266" style="fill:white"></rect><rect height="21" width="266.5" style="fill:lightgrey"></rect><text x="81" y="16">utilisateur</text><text><tspan x="2.5" y="37" style="text-decoration:underline">id</tspan><tspan x="233" y="37">INT</tspan><tspan x="2.5" y="53">uuid</tspan><tspan x="157" y="53">VARCHAR(50)</tspan><tspan x="2.5" y="69">email</tspan><tspan x="157" y="69">VARCHAR(50)</tspan><tspan x="2.5" y="85">nom</tspan><tspan x="157" y="85">VARCHAR(50)</tspan><tspan x="2.5" y="101">prenom</tspan><tspan x="157" y="101">VARCHAR(50)</tspan><tspan x="2.5" y="117">date_naissance</tspan><tspan x="157" y="117">VARCHAR(50)</tspan><tspan x="2.5" y="133">mot_de_passe</tspan><tspan x="157" y="133">VARCHAR(50)</tspan><tspan x="2.5" y="149">telephone</tspan><tspan x="157" y="149">VARCHAR(50)</tspan><tspan x="2.5" y="165">nationalite</tspan><tspan x="157" y="165">VARCHAR(50)</tspan><tspan x="2.5" y="181">adresse</tspan><tspan x="157" y="181">VARCHAR(50)</tspan><tspan x="2.5" y="197">role</tspan><tspan x="157" y="197">VARCHAR(50)</tspan></text></g><g transform="translate(43,365)"><rect height="42" width="143" style="fill:white"></rect><rect height="21" width="143" style="fill:lightgrey"></rect><text x="5" y="16">administrateur</text><text><tspan x="2.5" y="37" style="text-decoration:underline">id</tspan><tspan x="109.5" y="37">INT</tspan></text></g><g transform="translate(76,457)"><rect height="42" width="76" style="fill:white"></rect><rect height="21" width="76.5" style="fill:lightgrey"></rect><text x="14.5" y="16">jeune</text><text><tspan x="2.5" y="37" style="text-decoration:underline">id</tspan><tspan x="43" y="37">INT</tspan></text></g><g transform="translate(274,557)"><rect height="42" width="105" style="fill:white"></rect><rect height="21" width="105" style="fill:lightgrey"></rect><text x="5" y="16">conseiller</text><text><tspan x="2.5" y="37" style="text-decoration:underline">id</tspan><tspan x="71.5" y="37">INT</tspan></text></g><g transform="translate(764,557)"><rect height="42" width="105" style="fill:white"></rect><rect height="21" width="105" style="fill:lightgrey"></rect><text x="5" y="16">moderateur</text><text><tspan x="2.5" y="37" style="text-decoration:underline">id</tspan><tspan x="71.5" y="37">INT</tspan></text></g><g transform="translate(429,781)"><rect height="282" width="285" style="fill:white"></rect><rect height="21" width="285.5" style="fill:lightgrey"></rect><text x="109.5" y="16">article</text><text><tspan x="2.5" y="37" style="text-decoration:underline">id</tspan><tspan x="252" y="37">INT</tspan><tspan x="2.5" y="53">titre</tspan><tspan x="176" y="53">VARCHAR(50)</tspan><tspan x="2.5" y="69">date_creation</tspan><tspan x="176" y="69">VARCHAR(50)</tspan><tspan x="2.5" y="85">date_suppression</tspan><tspan x="176" y="85">VARCHAR(50)</tspan><tspan x="2.5" y="101">url_img</tspan><tspan x="176" y="101">VARCHAR(50)</tspan><tspan x="2.5" y="117">img_description</tspan><tspan x="176" y="117">VARCHAR(50)</tspan><tspan x="2.5" y="133">img_titre</tspan><tspan x="176" y="133">VARCHAR(50)</tspan><tspan x="2.5" y="149">sous_titre</tspan><tspan x="176" y="149">VARCHAR(50)</tspan><tspan x="2.5" y="165">contenu</tspan><tspan x="242.5" y="165">TEXT</tspan><tspan x="2.5" y="181">description</tspan><tspan x="176" y="181">VARCHAR(50)</tspan><tspan x="2.5" y="197">meta_title</tspan><tspan x="176" y="197">VARCHAR(50)</tspan><tspan x="2.5" y="213">categories</tspan><tspan x="176" y="213">VARCHAR(50)</tspan><tspan x="2.5" y="229">url_video</tspan><tspan x="176" y="229">VARCHAR(50)</tspan><tspan x="2.5" y="245">slug</tspan><tspan x="176" y="245">VARCHAR(50)</tspan><tspan x="2.5" y="261">tags</tspan><tspan x="176" y="261">VARCHAR(50)</tspan><tspan x="2.5" y="277">status</tspan><tspan x="176" y="277">VARCHAR(50)</tspan></text></g><g transform="translate(481,657)"><rect height="74" width="181" style="fill:white"></rect><rect height="21" width="181" style="fill:lightgrey"></rect><text x="62" y="16">redige</text><text><tspan x="2.5" y="37" style="text-decoration:underline">id_conseiller</tspan><tspan x="147.5" y="37">INT</tspan><tspan x="2.5" y="53" style="text-decoration:underline">id_moderateur</tspan><tspan x="147.5" y="53">INT</tspan><tspan x="2.5" y="69" style="text-decoration:underline">id_article</tspan><tspan x="147.5" y="69">INT</tspan></text></g><g transform="translate(919,549)"><rect height="58" width="181" style="fill:white"></rect><rect height="21" width="181" style="fill:lightgrey"></rect><text x="43" y="16">peut_gerer</text><text><tspan x="2.5" y="37" style="text-decoration:underline">id_moderateur</tspan><tspan x="147.5" y="37">INT</tspan><tspan x="2.5" y="53" style="text-decoration:underline">id_article</tspan><tspan x="147.5" y="53">INT</tspan></text></g><g transform="translate(24,549)"><rect height="58" width="181" style="fill:white"></rect><rect height="21" width="181" style="fill:lightgrey"></rect><text x="33.5" y="16">est_attribue</text><text><tspan x="2.5" y="37" style="text-decoration:underline">id_jeune</tspan><tspan x="147.5" y="37">INT</tspan><tspan x="2.5" y="53" style="text-decoration:underline">id_conseiller</tspan><tspan x="147.5" y="53">INT</tspan></text></g><g transform="translate(5,257)"><rect height="58" width="219" style="fill:white"></rect><rect height="21" width="219" style="fill:lightgrey"></rect><text x="90.5" y="16">gere</text><text><tspan x="2.5" y="37" style="text-decoration:underline">id_administrateur</tspan><tspan x="185.5" y="37">INT</tspan><tspan x="2.5" y="53" style="text-decoration:underline">id_utilisateur</tspan><tspan x="185.5" y="53">INT</tspan></text></g><g><path d="M 186 397 L 196 397 L 428 37 L 438 37" marker-end="url(#arrowMarker)"></path></g><g><path d="M 152 489 L 162 489 L 428 37 L 438 37" marker-end="url(#arrowMarker)"></path></g><g><path d="M 379 589 L 389 589 L 428 37 L 438 37" marker-end="url(#arrowMarker)"></path></g><g><path d="M 764 589 L 754 589 L 714 37 L 704 37" marker-end="url(#arrowMarker)"></path></g><g><path d="M 481 689 L 471 689 L 389 589 L 379 589" marker-end="url(#arrowMarker)"></path></g><g><path d="M 662 705 L 672 705 L 754 589 L 764 589" marker-end="url(#arrowMarker)"></path></g><g><path d="M 662 721 L 724 721 L 724 813 L 714 813" marker-end="url(#arrowMarker)"></path></g><g><path d="M 919 581 L 909 581 L 879 589 L 869 589" marker-end="url(#arrowMarker)"></path></g><g><path d="M 919 597 L 909 597 L 724 813 L 714 813" marker-end="url(#arrowMarker)"></path></g><g><path d="M 205 581 L 215 581 L 215 489 L 152 489" marker-end="url(#arrowMarker)"></path></g><g><path d="M 205 597 L 215 597 L 264 589 L 274 589" marker-end="url(#arrowMarker)"></path></g><g><path d="M 224 289 L 234 289 L 234 397 L 186 397" marker-end="url(#arrowMarker)"></path></g><g><path d="M 224 305 L 234 305 L 428 37 L 438 37" marker-end="url(#arrowMarker)"></path></g></svg>