<svg xmlns="http://www.w3.org/2000/svg" width="885" height="1049"><defs><style>@import url('https://fonts.googleapis.com/css2?family=Roboto+Mono&amp;display=swap')</style><style>text,text&gt;tspan{font-family:'Roboto Mono';font-size:16px} rect{stroke:black} line,path{fill:none;stroke:black}</style><marker id="arrowMarker" orient="auto" refX="6" refY="5" markerHeight="10" markerWidth="5"><path style="fill:black;stroke:black" d="M 0 0 L 5 5 L 0 10 Z"></path></marker><marker id="inheritMarker" orient="auto" refX="16" refY="7.5" markerHeight="15" markerWidth="15"><path style="fill:white;stroke:black" d="M 0 0 L 15 7.5 L 0 15 Z"></path></marker><marker id="aggregationMarker" orient="auto" refX="21" refY="7.5" markerHeight="15" markerWidth="20"><path style="fill:white;stroke:black" d="M 0 7.5 L 10 0 L 20 7.5 L 10 15 Z"></path></marker><marker id="compositionMarker" orient="auto" refX="21" refY="7.5" markerHeight="15" markerWidth="20"><path style="fill:black;stroke:black" d="M 0 7.5 L 10 0 L 20 7.5 L 10 15 Z"></path></marker></defs><g transform="translate(362,5)"><rect height="202" width="143" style="fill:white"></rect><rect height="21" width="143" style="fill:lightgrey"></rect><text x="19.25" y="16">utilisateur</text><text><tspan x="2.5" y="37" style="text-decoration:underline">id</tspan><tspan x="2.5" y="53">uuid</tspan><tspan x="2.5" y="69">email</tspan><tspan x="2.5" y="85">nom</tspan><tspan x="2.5" y="101">prenom</tspan><tspan x="2.5" y="117">date_naissance</tspan><tspan x="2.5" y="133">mot_de_passe</tspan><tspan x="2.5" y="149">telephone</tspan><tspan x="2.5" y="165">nationalite</tspan><tspan x="2.5" y="181">adresse</tspan><tspan x="2.5" y="197">role</tspan></text><g transform="translate(52,202)"><line x1="19" x2="19" y1="0" y2="5"></line><path d="M 39 24 a1,1 0 1,0 -39 0 l 39 0" style="fill:lightgrey"></path><text x="19.5" y="22"></text></g></g><g transform="translate(5,349)"><rect height="42" width="143" style="fill:white"></rect><rect height="21" width="143" style="fill:lightgrey"></rect><text x="5" y="16">administrateur</text><text></text></g><g transform="translate(48,441)"><rect height="42" width="57" style="fill:white"></rect><rect height="21" width="57.5" style="fill:lightgrey"></rect><text x="5" y="16">jeune</text><text></text></g><g transform="translate(198,533)"><rect height="42" width="105" style="fill:white"></rect><rect height="21" width="105" style="fill:lightgrey"></rect><text x="5" y="16">conseiller</text><text></text></g><g transform="translate(565,533)"><rect height="42" width="105" style="fill:white"></rect><rect height="21" width="105" style="fill:lightgrey"></rect><text x="5" y="16">moderateur</text><text></text></g><g transform="translate(353,717)"><rect height="282" width="162" style="fill:white"></rect><rect height="21" width="162" style="fill:lightgrey"></rect><text x="47.75" y="16">article</text><text><tspan x="2.5" y="37" style="text-decoration:underline">id</tspan><tspan x="2.5" y="53">titre</tspan><tspan x="2.5" y="69">date_creation</tspan><tspan x="2.5" y="85">date_suppression</tspan><tspan x="2.5" y="101">url_img</tspan><tspan x="2.5" y="117">img_description</tspan><tspan x="2.5" y="133">img_titre</tspan><tspan x="2.5" y="149">sous_titre</tspan><tspan x="2.5" y="165">contenu</tspan><tspan x="2.5" y="181">description</tspan><tspan x="2.5" y="197">meta_title</tspan><tspan x="2.5" y="213">categories</tspan><tspan x="2.5" y="229">url_video</tspan><tspan x="2.5" y="245">slug</tspan><tspan x="2.5" y="261">tags</tspan><tspan x="2.5" y="277">status</tspan></text></g><g transform="translate(47,257)"><rect height="42" width="58" rx="20" ry="20" style="fill:lightgrey"></rect><line x1="0" x2="58" y1="21" y2="21"></line><text x="10" y="17">gere</text><text></text></g><g transform="translate(9,533)"><rect height="42" width="134" rx="20" ry="20" style="fill:lightgrey"></rect><line x1="0" x2="134" y1="21" y2="21"></line><text x="10" y="17">est_attribué</text><text></text></g><g transform="translate(720,533)"><rect height="42" width="115" rx="20" ry="20" style="fill:lightgrey"></rect><line x1="0" x2="115" y1="21" y2="21"></line><text x="10" y="17">peut_gerer</text><text></text></g><g transform="translate(395,625)"><rect height="42" width="77" rx="20" ry="20" style="fill:lightgrey"></rect><line x1="0" x2="77" y1="21" y2="21"></line><text x="10" y="17">redige</text><text></text></g><g><line x1="76" x2="76" y1="299" y2="349"></line><text x="81" y="342">1,N</text></g><g><line x1="105" x2="362" y1="264" y2="140"></line><text x="326" y="161">0,N</text></g><g><line x1="76" x2="76" y1="533" y2="483"></line><text x="81" y="504">1,N</text></g><g><line x1="143" x2="198" y1="554" y2="554"></line><text x="162" y="575">1,N</text></g><g><line x1="720" x2="670" y1="554" y2="554"></line><text x="675" y="575">1,N</text></g><g><line x1="753" x2="515" y1="575" y2="786"></line><text x="520" y="779">1,N</text></g><g><line x1="395" x2="292" y1="627" y2="575"></line><text x="297" y="596">1,N</text></g><g><line x1="472" x2="575" y1="627" y2="575"></line><text x="539" y="596">1,N</text></g><g><line x1="433" x2="433" y1="667" y2="717"></line><text x="438" y="710">1,N</text></g><g><line x1="433" x2="97" y1="231" y2="441"></line><text x="102" y="434"></text></g><g><line x1="433" x2="259" y1="231" y2="533"></line><text x="264" y="526"></text></g><g><line x1="433" x2="608" y1="231" y2="533"></line><text x="601" y="526"></text></g><g><line x1="433" x2="104" y1="231" y2="349"></line><text x="109" y="342"></text></g></svg>